<?xml version="1.0" encoding="UTF-8"?>
<!DOCTYPE svg PUBLIC "-//W3C//DTD SVG 1.1//EN" "http://www.w3.org/Graphics/SVG/1.1/DTD/svg11.dtd">
<!-- Creator: CorelDRAW -->
<svg xmlns="http://www.w3.org/2000/svg" xml:space="preserve" width="210mm" height="297mm" version="1.1" style="shape-rendering:geometricPrecision; text-rendering:geometricPrecision; image-rendering:optimizeQuality; fill-rule:evenodd; clip-rule:evenodd"
viewBox="0 0 21000 29700"
 xmlns:xlink="http://www.w3.org/1999/xlink"
 xmlns:xodm="http://www.corel.com/coreldraw/odm/2003">
 <defs>
  <style type="text/css">
   <![CDATA[
    .str0 {stroke:#333333;stroke-width:18;stroke-linejoin:bevel;stroke-miterlimit:22.9256}
    .fil0 {fill:none}
   ]]>
  </style>
 </defs>
 <g id="Layer_x0020_1">
  <metadata id="CorelCorpID_0Corel-Layer"/>
  <g id="Geometric_x0020_Polygon_x0020_wolf--geometric-polygone-wolf-animals-clipart-wall_x0020_decor.dxf">
   <path class="fil0 str0" d="M8178.12 6632.77c0,0 541.29,1641.95 541.29,1641.95 0,0 0,0 0,0 0,0 651.32,366.72 651.32,366.72 0,0 0,0 0,0 0,0 583.61,1783.33 583.61,1783.33 0,0 0,0 0,0 0,0 661.56,365.7 661.56,365.7 0,0 0,0 0,0 0,0 558.95,1146.48 558.95,1146.48 0,0 0,0 0,0 0,0 -1076.58,16.44 -1076.58,16.44 0,0 0,0 0,0 0,0 -197.19,376.01 -197.19,376.01 0,0 0,0 0,0 0,0 661.61,936.9 661.61,936.9 0,0 0,0 0,0 0,0 2333.99,2440.79 2333.99,2440.79 0,0 0,0 0,0 0,0 1610.79,3139.32 1610.79,3139.32 0,0 0,0 0,0 0,0 -279.36,1766.83 -279.36,1766.83 0,0 0,0 0,0 0,0 809.5,217.81 809.5,217.81 0,0 0,0 0,0 0,0 838.3,965.6 838.3,965.6 0,0 0,0 0,0 0,0 8.29,1314.83 8.29,1314.83 0,0 0,0 0,0 0,0 -7938.64,-0.06 -7938.64,-0.06 0,0 0,0 0,0 0,0 534.17,-862.9 534.17,-862.9 0,0 0,0 0,0 0,0 842.36,-49.31 842.36,-49.31 0,0 0,0 0,0 0,0 -866.98,-1294.36 -866.98,-1294.36 0,0 0,0 0,0 0,0 164.37,-1347.82 164.37,-1347.82 0,0 0,0 0,0 0,0 -534.22,-682.16 -534.22,-682.16 0,0 0,0 0,0 0,0 36.99,1092.98 36.99,1092.98 0,0 0,0 0,0 0,0 -1421.71,3159.82 -1421.71,3159.82 0,0 0,0 0,0 0,0 -1524.45,-8.22 -1524.45,-8.22 0,0 0,0 0,0 0,0 308.17,-641.01 308.17,-641.01 0,0 0,0 0,0 0,0 784.85,-250.66 784.85,-250.66 0,0 0,0 0,0 0,0 143.91,-5300.77 143.91,-5300.77 0,0 0,0 0,0 0,0 -1298.5,-3591.42 -1298.5,-3591.42 0,0 0,0 0,0 0,0 608.18,-2194.26 608.18,-2194.26 0,0 0,0 0,0 0,0 682.16,-706.74 682.16,-706.74 0,0 0,0 0,0 0,0 123.26,-1060.14 123.26,-1060.14 0,0 0,0 0,0 0,0 -575.25,-1019.05 -575.25,-1019.05 0,0 0,0 0,0 0,0 542.37,-423.23 542.37,-423.23 0,0 0,0 0,0 0,0 591.71,472.54 591.71,472.54 0,0 0,0 0,0 0,0 89.41,-1105.86 89.41,-1105.86 0,0 0,0 0,0 0,0 896.32,-699.29 896.32,-699.29 0,0 0,0 0,0 62.99,-49.2 85.11,-28.74 105.44,33.21z"/>
   <path class="fil0 str0" d="M8171.82 6970.67c0,0 456.12,1417.65 456.12,1417.65 0,0 0,0 0,0 0,0 665.71,336.98 665.71,336.98 0,0 0,0 0,0 0,0 484.95,1516.32 484.95,1516.32 0,0 0,0 0,0 0,0 -1672.51,-1721.8 -1672.51,-1721.8 0,0 0,0 0,0 0,0 65.73,-1549.15 65.73,-1549.15z"/>
   <path class="fil0 str0" d="M8060.84 6740.55c0,0 -73.91,1729.94 -73.91,1729.94 0,0 0,0 0,0 0,0 -776.63,4.11 -776.63,4.11 0,0 0,0 0,0 0,0 69.83,-1105.35 69.83,-1105.35 0,0 0,0 0,0 0,0 780.71,-628.7 780.71,-628.7z"/>
   <path class="fil0 str0" d="M8048.8 8622.67c0,0 838.24,862.91 838.24,862.91 0,0 0,0 0,0 0,0 -1055.98,986.2 -1055.98,986.2 0,0 0,0 0,0 0,0 -386.3,-973.86 -386.3,-973.86 0,0 0,0 0,0 0,0 604.04,-875.25 604.04,-875.25z"/>
   <path class="fil0 str0" d="M9923.15 10541.74c0,0 616.47,341.04 616.47,341.04 0,0 0,0 0,0 0,0 443.73,895.83 443.73,895.83 0,0 0,0 0,0 0,0 -1343.72,-456.14 -1343.72,-456.14 0,0 0,0 0,0 0,0 283.52,-780.73 283.52,-780.73z"/>
   <path class="fil0 str0" d="M8965.39 9571.93c0,0 867.02,912.22 867.02,912.22 0,0 0,0 0,0 0,0 -542.37,1347.82 -542.37,1347.82 0,0 0,0 0,0 0,0 -1401.23,-1261.53 -1401.23,-1261.53 0,0 0,0 0,0 0,0 1076.58,-998.51 1076.58,-998.51z"/>
   <path class="fil0 str0" d="M6495.52 8063.86c0,0 616.38,513.63 616.38,513.63 0,0 0,0 0,0 0,0 809.49,12.34 809.49,12.34 0,0 0,0 0,0 0,0 -525.98,830.04 -525.98,830.04 0,0 0,0 0,0 0,0 -1277.92,-1064.26 -1277.92,-1064.26 0,0 0,0 0,0 0,0 378.03,-291.75 378.03,-291.75z"/>
   <path class="fil0 str0" d="M7342.1 9534.92c0,0 394.55,1006.73 394.55,1006.73 0,0 0,0 0,0 0,0 -1713.52,491.06 -1713.52,491.06 0,0 0,0 0,0 0,0 488.94,-523.94 488.94,-523.94 0,0 0,0 0,0 0,0 152.04,-1121.77 152.04,-1121.77 0,0 0,0 0,0 0,0 -435.57,-780.75 -435.57,-780.75 0,0 0,0 0,0 0,0 1113.56,928.67 1113.56,928.67z"/>
   <path class="fil0 str0" d="M9841.26 12481.29c0,0 583.5,813.61 583.5,813.61 0,0 0,0 0,0 0,0 -2194.25,936.86 -2194.25,936.86 0,0 0,0 0,0 0,0 -2966.75,-928.64 -2966.75,-928.64 0,0 0,0 0,0 0,0 2522.96,-2629.83 2522.96,-2629.83 0,0 0,0 0,0 0,0 2054.54,1808 2054.54,1808z"/>
   <path class="fil0 str0" d="M9565.87 11437.53c0,0 1109.44,390.37 1109.44,390.37 0,0 0,0 0,0 0,0 -653.33,0 -653.33,0 0,0 0,0 0,0 0,0 -217.79,435.57 -217.79,435.57 0,0 0,0 0,0 0,0 -402.69,-365.72 -402.69,-365.72 0,0 0,0 0,0 0,0 164.37,-460.22 164.37,-460.22z"/>
   <path class="fil0 str0" d="M7597.3 10697.84c0,0 -2297.05,2407.94 -2297.05,2407.94 0,0 0,0 0,0 0,0 538.29,-1877.87 538.29,-1877.87 0,0 0,0 0,0 0,0 1758.76,-530.07 1758.76,-530.07z"/>
   <path class="fil0 str0" d="M10507 13393.45c0,0 2112.07,2210.67 2112.07,2210.67 0,0 0,0 0,0 0,0 -4207.68,-1331.34 -4207.68,-1331.34 0,0 0,0 0,0 0,0 2095.61,-879.33 2095.61,-879.33z"/>
   <path class="fil0 str0" d="M10001.75 14901.38c0,0 2654.46,838.24 2654.46,838.24 0,0 0,0 0,0 0,0 -2621.58,1232.74 -2621.58,1232.74 0,0 0,0 0,0 0,0 -32.88,-2070.98 -32.88,-2070.98z"/>
   <path class="fil0 str0" d="M9874.26 14872.66c0,0 32.88,2062.76 32.88,2062.76 0,0 0,0 0,0 0,0 -4396.71,-3443.41 -4396.71,-3443.41 0,0 0,0 0,0 0,0 4363.83,1380.65 4363.83,1380.65z"/>
   <path class="fil0 str0" d="M5325.86 13520.64c0,0 4495.29,3459.82 4495.29,3459.82 0,0 0,0 0,0 0,0 -3303.69,-106.84 -3303.69,-106.84 0,0 0,0 0,0 0,0 -1191.6,-3352.98 -1191.6,-3352.98z"/>
   <path class="fil0 str0" d="M12945.41 16075.41c0,0 1429.93,2753.08 1429.93,2753.08 0,0 0,0 0,0 0,0 -994.4,369.82 -994.4,369.82 0,0 0,0 0,0 0,0 -435.53,-3122.9 -435.53,-3122.9z"/>
   <path class="fil0 str0" d="M12780.82 15820.82c0,0 501.35,3410.44 501.35,3410.44 0,0 0,0 0,0 0,0 -929.73,323.86 -2781.54,1019.67 0,0 0,0 0,0 -167.28,-1051.31 -305,-2086.09 -456.44,-3139.86 0,0 0,0 0,0 0,0 2736.63,-1290.25 2736.63,-1290.25z"/>
   <path class="fil0 str0" d="M13413.54 19305.4c0,0 953.3,-336.95 953.3,-336.95 0,0 0,0 0,0 0,0 -254.76,1495.7 -254.76,1495.7 0,0 0,0 0,0 0,0 -698.54,-1158.75 -698.54,-1158.75z"/>
   <path class="fil0 str0" d="M13298.35 19346.64c0,0 797.14,1298.46 797.14,1298.46 0,0 0,0 0,0 0,0 -2416.12,2325.74 -2416.12,2325.74 0,0 0,0 0,0 0,0 -1158.76,-2613.37 -1158.76,-2613.37 0,0 0,0 0,0 0,0 2777.74,-1010.83 2777.74,-1010.83z"/>
   <path class="fil0 str0" d="M9945.06 17242.96c0,0 435.53,3040.73 435.53,3040.73 0,0 0,0 0,0 0,0 -1799.78,517.75 -1799.78,517.75 0,0 0,0 0,0 0,0 156.16,-1216.29 156.16,-1216.29 0,0 0,0 0,0 0,0 1208.09,-2342.19 1208.09,-2342.19z"/>
   <path class="fil0 str0" d="M14974.92 20916.19c0,0 764.29,895.79 764.29,895.79 0,0 0,0 0,0 0,0 -3821.42,1125.89 -3821.42,1125.89 0,0 0,0 0,0 0,0 2251.76,-2210.69 2251.76,-2210.69 0,0 0,0 0,0 0,0 805.37,189.01 805.37,189.01z"/>
   <path class="fil0 str0" d="M15780.29 21918.8c0,0 0,1068.36 0,1068.36 0,0 0,0 0,0 0,0 -3665.27,0 -3665.27,0 0,0 0,0 0,0 0,0 3665.27,-1068.36 3665.27,-1068.36z"/>
   <path class="fil0 str0" d="M10405.36 20398.64c0,0 1134.15,2514.7 1134.15,2514.7 0,0 0,0 0,0 0,0 -2901.04,-1996.95 -2901.04,-1996.95 0,0 0,0 0,0 0,0 1766.89,-517.75 1766.89,-517.75z"/>
   <path class="fil0 str0" d="M8728.95 21105.35c0,0 2711.99,1873.74 2711.99,1873.74 0,0 0,0 0,0 0,0 -3287.25,32.86 -3287.25,32.86 0,0 0,0 0,0 0,0 410.91,-673.89 410.91,-673.89 0,0 0,0 0,0 0,0 945.08,-49.29 945.08,-49.29 0,0 0,0 0,0 0,0 -780.73,-1183.42 -780.73,-1183.42z"/>
   <path class="fil0 str0" d="M7956.2 17037.55c0,0 1914.82,90.4 1914.82,90.4 0,0 0,0 0,0 0,0 -1199.84,2325.74 -1199.84,2325.74 0,0 0,0 0,0 0,0 -599.92,-788.93 -599.92,-788.93 0,0 0,0 0,0 0,0 -115.06,-1627.21 -115.06,-1627.21z"/>
   <path class="fil0 str0" d="M6591.87 16984.25c0,0 1240.94,32.87 1240.94,32.87 0,0 0,0 0,0 0,0 189.01,2670.9 189.01,2670.9 0,0 0,0 0,0 0,0 -1429.95,-2703.77 -1429.95,-2703.77z"/>
   <path class="fil0 str0" d="M8013.32 19910.14c0,0 -1331.36,3003.78 -1331.36,3003.78 0,0 0,0 0,0 0,0 -324.62,-645.13 -324.62,-645.13 0,0 0,0 0,0 0,0 924.56,-3673.55 924.56,-3673.55 0,0 0,0 0,0 0,0 731.42,1314.9 731.42,1314.9z"/>
   <path class="fil0 str0" d="M7232.83 18438.92c0,0 -846.46,3279.04 -846.46,3279.04 0,0 0,0 0,0 0,0 147.92,-4561.07 147.92,-4561.07 0,0 0,0 0,0 0,0 698.54,1282.03 698.54,1282.03z"/>
   <path class="fil0 str0" d="M6262.79 22355.09c0,0 320.51,632.8 320.51,632.8 0,0 0,0 0,0 0,0 -1220.4,12.34 -1220.4,12.34 0,0 0,0 0,0 0,0 205.47,-447.91 205.47,-447.91 0,0 0,0 0,0 0,0 694.42,-197.23 694.42,-197.23z"/>
  </g>
 </g>
</svg>
